<svg width="289" height="47" viewBox="0 0 289 47" fill="none" xmlns="http://www.w3.org/2000/svg">
<path d="M32.8354 10.8549L0.00585938 29.8306L10.9554 36.145L43.7844 17.1692L32.8354 10.8549Z" fill="#3D587B"/>
<path d="M43.791 29.8086L43.7851 17.1687L32.8418 23.4945L32.8485 36.134L43.791 29.8086Z" fill="#D5F6FF"/>
<path d="M21.8928 17.1795L10.9434 10.8652L10.9494 23.5049L21.8928 17.1795Z" fill="#5A7B92"/>
<path d="M32.8484 36.134L32.8413 23.4943L21.8989 29.8196L32.8484 36.134Z" fill="#5A7B92"/>
<path d="M10.9493 23.505L10.9433 10.8653L0 17.1907L0.00604055 29.8303L10.9493 23.505Z" fill="#AAEEFF"/>
<path d="M60.581 33.5V13.1364H68.2174C69.7818 13.1364 71.0943 13.428 72.1549 14.0114C73.2221 14.5947 74.0275 15.3968 74.5711 16.4176C75.1213 17.4318 75.3964 18.5852 75.3964 19.8778C75.3964 21.1837 75.1213 22.3437 74.5711 23.358C74.0209 24.3722 73.2089 25.1709 72.135 25.7543C71.0611 26.331 69.7387 26.6193 68.1677 26.6193H63.1066V23.5866H67.6705C68.5853 23.5866 69.3343 23.4276 69.9177 23.1094C70.501 22.7912 70.9319 22.3537 71.2103 21.7969C71.4953 21.2401 71.6379 20.6004 71.6379 19.8778C71.6379 19.1553 71.4953 18.5189 71.2103 17.9688C70.9319 17.4186 70.4977 16.991 69.9077 16.6861C69.3244 16.3745 68.572 16.2188 67.6506 16.2188H64.27V33.5H60.581ZM82.0409 24.5511V33.5H78.4415V13.1364H81.9614V20.8224H82.1403C82.4983 19.9607 83.0518 19.2812 83.8008 18.7841C84.5565 18.2803 85.5177 18.0284 86.6844 18.0284C87.745 18.0284 88.6697 18.2505 89.4585 18.6946C90.2473 19.1387 90.8572 19.7884 91.2881 20.6435C91.7256 21.4986 91.9443 22.5426 91.9443 23.7756V33.5H88.3449V24.3324C88.3449 23.3049 88.0797 22.5062 87.5494 21.9361C87.0258 21.3594 86.29 21.071 85.342 21.071C84.7057 21.071 84.1356 21.2102 83.6318 21.4886C83.1347 21.7604 82.7436 22.1548 82.4585 22.6719C82.1801 23.1889 82.0409 23.8153 82.0409 24.5511ZM97.3037 39.2273C96.8132 39.2273 96.3591 39.1875 95.9415 39.108C95.5305 39.035 95.2024 38.9489 94.9571 38.8494L95.7923 36.0455C96.316 36.1979 96.7833 36.2708 97.1943 36.2642C97.6053 36.2576 97.9666 36.1283 98.2781 35.8764C98.5963 35.6312 98.8648 35.2202 99.0835 34.6435L99.3918 33.8182L93.8534 18.2273H97.6716L101.191 29.7614H101.351L104.88 18.2273H108.709L102.593 35.3494C102.308 36.1581 101.931 36.8509 101.46 37.4276C100.989 38.0109 100.413 38.455 99.7298 38.7599C99.0537 39.0715 98.245 39.2273 97.3037 39.2273ZM123.27 22.2642L119.989 22.6222C119.896 22.2907 119.734 21.9792 119.502 21.6875C119.276 21.3958 118.972 21.1605 118.587 20.9815C118.203 20.8026 117.732 20.7131 117.175 20.7131C116.426 20.7131 115.796 20.8755 115.286 21.2003C114.782 21.5251 114.534 21.946 114.54 22.4631C114.534 22.9072 114.696 23.2685 115.027 23.5469C115.365 23.8253 115.922 24.054 116.698 24.233L119.303 24.7898C120.748 25.1013 121.822 25.5952 122.525 26.2713C123.234 26.9474 123.592 27.8324 123.598 28.9261C123.592 29.8873 123.31 30.7358 122.753 31.4716C122.203 32.2008 121.437 32.7708 120.456 33.1818C119.475 33.5928 118.348 33.7983 117.076 33.7983C115.206 33.7983 113.702 33.4072 112.562 32.625C111.421 31.8362 110.742 30.7391 110.523 29.3338L114.033 28.9957C114.192 29.6851 114.53 30.2055 115.047 30.5568C115.564 30.9081 116.237 31.0838 117.066 31.0838C117.921 31.0838 118.607 30.9081 119.124 30.5568C119.648 30.2055 119.91 29.7713 119.91 29.2543C119.91 28.8168 119.74 28.4555 119.402 28.1705C119.071 27.8854 118.554 27.6667 117.851 27.5142L115.246 26.9673C113.781 26.6624 112.697 26.1487 111.995 25.4261C111.292 24.697 110.944 23.7756 110.951 22.6619C110.944 21.7206 111.199 20.9053 111.716 20.2159C112.24 19.5199 112.966 18.983 113.894 18.6051C114.829 18.2206 115.906 18.0284 117.125 18.0284C118.915 18.0284 120.324 18.4096 121.351 19.1719C122.385 19.9342 123.025 20.965 123.27 22.2642ZM126.566 33.5V18.2273H130.166V33.5H126.566ZM128.376 16.0597C127.806 16.0597 127.316 15.8707 126.905 15.4929C126.494 15.1084 126.288 14.6477 126.288 14.1108C126.288 13.5672 126.494 13.1065 126.905 12.7287C127.316 12.3442 127.806 12.152 128.376 12.152C128.953 12.152 129.443 12.3442 129.848 12.7287C130.259 13.1065 130.464 13.5672 130.464 14.1108C130.464 14.6477 130.259 15.1084 129.848 15.4929C129.443 15.8707 128.953 16.0597 128.376 16.0597ZM140.529 33.7983C139.005 33.7983 137.695 33.4635 136.602 32.794C135.515 32.1245 134.676 31.1998 134.086 30.0199C133.503 28.8333 133.211 27.4678 133.211 25.9233C133.211 24.3722 133.509 23.0033 134.106 21.8168C134.702 20.6236 135.544 19.6955 136.631 19.0327C137.725 18.3632 139.018 18.0284 140.509 18.0284C141.749 18.0284 142.846 18.2571 143.8 18.7145C144.762 19.1652 145.527 19.8049 146.097 20.6335C146.667 21.4555 146.992 22.4167 147.072 23.517H143.631C143.492 22.7812 143.161 22.1681 142.637 21.6776C142.12 21.1804 141.427 20.9318 140.559 20.9318C139.823 20.9318 139.177 21.1307 138.62 21.5284C138.063 21.9195 137.629 22.483 137.318 23.2188C137.013 23.9545 136.86 24.8362 136.86 25.8636C136.86 26.9044 137.013 27.7992 137.318 28.5483C137.622 29.2907 138.05 29.8641 138.6 30.2685C139.157 30.6662 139.81 30.8651 140.559 30.8651C141.089 30.8651 141.563 30.7656 141.981 30.5668C142.405 30.3613 142.76 30.0663 143.045 29.6818C143.33 29.2973 143.525 28.83 143.631 28.2798H147.072C146.986 29.3603 146.667 30.3182 146.117 31.1534C145.567 31.982 144.818 32.6316 143.87 33.1023C142.922 33.5663 141.809 33.7983 140.529 33.7983ZM154.422 33.8082C153.454 33.8082 152.583 33.6359 151.807 33.2912C151.038 32.9399 150.428 32.4228 149.978 31.7401C149.534 31.0573 149.312 30.2154 149.312 29.2145C149.312 28.3527 149.471 27.6402 149.789 27.0767C150.107 26.5133 150.541 26.0625 151.091 25.7244C151.642 25.3864 152.261 25.1312 152.951 24.9588C153.647 24.7798 154.366 24.6506 155.108 24.571C156.003 24.4782 156.729 24.3954 157.286 24.3224C157.843 24.2429 158.247 24.1236 158.499 23.9645C158.758 23.7988 158.887 23.5436 158.887 23.1989V23.1392C158.887 22.3902 158.665 21.8101 158.221 21.3991C157.776 20.9882 157.137 20.7827 156.302 20.7827C155.42 20.7827 154.721 20.9749 154.204 21.3594C153.693 21.7438 153.348 22.1979 153.169 22.7216L149.809 22.2443C150.074 21.3163 150.511 20.5407 151.121 19.9176C151.731 19.2879 152.477 18.8172 153.358 18.5057C154.24 18.1875 155.214 18.0284 156.282 18.0284C157.017 18.0284 157.75 18.1146 158.479 18.2869C159.208 18.4593 159.874 18.7443 160.478 19.142C161.081 19.5331 161.565 20.0668 161.929 20.7429C162.301 21.419 162.486 22.2642 162.486 23.2784V33.5H159.026V31.402H158.907C158.688 31.8262 158.38 32.224 157.982 32.5952C157.591 32.9598 157.097 33.2547 156.5 33.4801C155.91 33.6989 155.218 33.8082 154.422 33.8082ZM155.357 31.1634C156.079 31.1634 156.706 31.0208 157.236 30.7358C157.767 30.4441 158.174 30.0597 158.459 29.5824C158.751 29.1051 158.897 28.5848 158.897 28.0213V26.2216C158.784 26.3144 158.592 26.4006 158.32 26.4801C158.055 26.5597 157.757 26.6293 157.425 26.6889C157.094 26.7486 156.766 26.8016 156.441 26.848C156.116 26.8944 155.834 26.9342 155.596 26.9673C155.059 27.0402 154.578 27.1596 154.154 27.3253C153.73 27.491 153.395 27.723 153.15 28.0213C152.904 28.313 152.782 28.6908 152.782 29.1548C152.782 29.8177 153.024 30.3182 153.508 30.6562C153.991 30.9943 154.608 31.1634 155.357 31.1634ZM173.21 33.5V13.1364H186.255V16.2287H176.899V21.7571H185.361V24.8494H176.899V33.5H173.21ZM189.457 33.5V18.2273H193.057V33.5H189.457ZM191.267 16.0597C190.697 16.0597 190.206 15.8707 189.795 15.4929C189.384 15.1084 189.179 14.6477 189.179 14.1108C189.179 13.5672 189.384 13.1065 189.795 12.7287C190.206 12.3442 190.697 12.152 191.267 12.152C191.843 12.152 192.334 12.3442 192.738 12.7287C193.149 13.1065 193.355 13.5672 193.355 14.1108C193.355 14.6477 193.149 15.1084 192.738 15.4929C192.334 15.8707 191.843 16.0597 191.267 16.0597ZM200.357 24.5511V33.5H196.758V18.2273H200.198V20.8224H200.377C200.729 19.9673 201.289 19.2879 202.058 18.7841C202.833 18.2803 203.791 18.0284 204.931 18.0284C205.985 18.0284 206.903 18.2538 207.685 18.7045C208.474 19.1553 209.084 19.8082 209.515 20.6634C209.952 21.5185 210.168 22.5559 210.161 23.7756V33.5H206.562V24.3324C206.562 23.3116 206.297 22.5128 205.766 21.9361C205.243 21.3594 204.517 21.071 203.589 21.071C202.959 21.071 202.399 21.2102 201.908 21.4886C201.425 21.7604 201.043 22.1548 200.765 22.6719C200.493 23.1889 200.357 23.8153 200.357 24.5511ZM218.215 33.8082C217.247 33.8082 216.376 33.6359 215.6 33.2912C214.831 32.9399 214.221 32.4228 213.771 31.7401C213.327 31.0573 213.104 30.2154 213.104 29.2145C213.104 28.3527 213.264 27.6402 213.582 27.0767C213.9 26.5133 214.334 26.0625 214.884 25.7244C215.434 25.3864 216.054 25.1312 216.744 24.9588C217.44 24.7798 218.159 24.6506 218.901 24.571C219.796 24.4782 220.522 24.3954 221.079 24.3224C221.636 24.2429 222.04 24.1236 222.292 23.9645C222.55 23.7988 222.68 23.5436 222.68 23.1989V23.1392C222.68 22.3902 222.458 21.8101 222.014 21.3991C221.569 20.9882 220.93 20.7827 220.095 20.7827C219.213 20.7827 218.514 20.9749 217.997 21.3594C217.486 21.7438 217.141 22.1979 216.962 22.7216L213.602 22.2443C213.867 21.3163 214.304 20.5407 214.914 19.9176C215.524 19.2879 216.27 18.8172 217.151 18.5057C218.033 18.1875 219.007 18.0284 220.075 18.0284C220.81 18.0284 221.543 18.1146 222.272 18.2869C223.001 18.4593 223.667 18.7443 224.271 19.142C224.874 19.5331 225.358 20.0668 225.722 20.7429C226.094 21.419 226.279 22.2642 226.279 23.2784V33.5H222.819V31.402H222.7C222.481 31.8262 222.173 32.224 221.775 32.5952C221.384 32.9598 220.89 33.2547 220.293 33.4801C219.703 33.6989 219.011 33.8082 218.215 33.8082ZM219.15 31.1634C219.872 31.1634 220.499 31.0208 221.029 30.7358C221.559 30.4441 221.967 30.0597 222.252 29.5824C222.544 29.1051 222.69 28.5848 222.69 28.0213V26.2216C222.577 26.3144 222.385 26.4006 222.113 26.4801C221.848 26.5597 221.55 26.6293 221.218 26.6889C220.887 26.7486 220.559 26.8016 220.234 26.848C219.909 26.8944 219.627 26.9342 219.389 26.9673C218.852 27.0402 218.371 27.1596 217.947 27.3253C217.523 27.491 217.188 27.723 216.943 28.0213C216.697 28.313 216.575 28.6908 216.575 29.1548C216.575 29.8177 216.817 30.3182 217.3 30.6562C217.784 30.9943 218.401 31.1634 219.15 31.1634ZM233.498 24.5511V33.5H229.899V18.2273H233.339V20.8224H233.518C233.869 19.9673 234.429 19.2879 235.198 18.7841C235.974 18.2803 236.932 18.0284 238.072 18.0284C239.126 18.0284 240.044 18.2538 240.826 18.7045C241.615 19.1553 242.225 19.8082 242.656 20.6634C243.093 21.5185 243.309 22.5559 243.302 23.7756V33.5H239.702V24.3324C239.702 23.3116 239.437 22.5128 238.907 21.9361C238.383 21.3594 237.658 21.071 236.729 21.071C236.1 21.071 235.54 21.2102 235.049 21.4886C234.565 21.7604 234.184 22.1548 233.906 22.6719C233.634 23.1889 233.498 23.8153 233.498 24.5511ZM253.623 33.7983C252.098 33.7983 250.789 33.4635 249.695 32.794C248.608 32.1245 247.77 31.1998 247.18 30.0199C246.596 28.8333 246.305 27.4678 246.305 25.9233C246.305 24.3722 246.603 23.0033 247.2 21.8168C247.796 20.6236 248.638 19.6955 249.725 19.0327C250.819 18.3632 252.112 18.0284 253.603 18.0284C254.843 18.0284 255.94 18.2571 256.894 18.7145C257.855 19.1652 258.621 19.8049 259.191 20.6335C259.761 21.4555 260.086 22.4167 260.166 23.517H256.725C256.586 22.7812 256.255 22.1681 255.731 21.6776C255.214 21.1804 254.521 20.9318 253.653 20.9318C252.917 20.9318 252.271 21.1307 251.714 21.5284C251.157 21.9195 250.723 22.483 250.411 23.2188C250.106 23.9545 249.954 24.8362 249.954 25.8636C249.954 26.9044 250.106 27.7992 250.411 28.5483C250.716 29.2907 251.144 29.8641 251.694 30.2685C252.251 30.6662 252.904 30.8651 253.653 30.8651C254.183 30.8651 254.657 30.7656 255.075 30.5668C255.499 30.3613 255.854 30.0663 256.139 29.6818C256.424 29.2973 256.619 28.83 256.725 28.2798H260.166C260.079 29.3603 259.761 30.3182 259.211 31.1534C258.661 31.982 257.912 32.6316 256.964 33.1023C256.016 33.5663 254.902 33.7983 253.623 33.7983ZM269.883 33.7983C268.351 33.7983 267.029 33.4801 265.915 32.8438C264.808 32.2008 263.956 31.2926 263.36 30.1193C262.763 28.9394 262.465 27.5507 262.465 25.9531C262.465 24.3821 262.763 23.0033 263.36 21.8168C263.963 20.6236 264.805 19.6955 265.885 19.0327C266.966 18.3632 268.235 18.0284 269.694 18.0284C270.635 18.0284 271.523 18.1809 272.358 18.4858C273.2 18.7841 273.943 19.2481 274.586 19.8778C275.235 20.5076 275.746 21.3097 276.117 22.2841C276.488 23.2519 276.674 24.4053 276.674 25.7443V26.848H264.155V24.4219H273.223C273.217 23.7325 273.068 23.1193 272.776 22.5824C272.484 22.0388 272.077 21.6113 271.553 21.2997C271.036 20.9882 270.433 20.8324 269.743 20.8324C269.008 20.8324 268.361 21.0114 267.804 21.3693C267.248 21.7206 266.813 22.1847 266.502 22.7614C266.197 23.3314 266.041 23.9579 266.035 24.6406V26.7585C266.035 27.6468 266.197 28.4091 266.522 29.0455C266.847 29.6752 267.301 30.1591 267.884 30.4972C268.467 30.8286 269.15 30.9943 269.932 30.9943C270.456 30.9943 270.93 30.9214 271.354 30.7756C271.778 30.6231 272.146 30.401 272.458 30.1094C272.769 29.8177 273.005 29.4564 273.164 29.0256L276.525 29.4034C276.312 30.2917 275.908 31.0672 275.312 31.7301C274.722 32.3864 273.966 32.8968 273.044 33.2614C272.123 33.6193 271.069 33.7983 269.883 33.7983Z" fill="white"/>
</svg>
